<svg xmlns="http://www.w3.org/2000/svg" viewBox="0 0 512 512" role="img" aria-labelledby="title">
  <title id="title">코드밥상</title>
  <rect width="512" height="512" rx="96" fill="#02040A"/>
  <rect x="48" y="48" width="416" height="416" rx="72" fill="#07111F" stroke="#1E40AF" stroke-width="10"/>
  <path d="M157 132h198c16 0 29 13 29 29v190c0 16-13 29-29 29H157c-16 0-29-13-29-29V161c0-16 13-29 29-29Z" fill="#0A1220" stroke="#1D4ED8" stroke-width="8"/>
  <path d="M177 188h158M177 240h158M177 292h158" stroke="#334155" stroke-width="14" stroke-linecap="round"/>
  <path d="M204 164v184M256 164v184M308 164v184" stroke="#1E40AF" stroke-width="12" stroke-linecap="round"/>
  <circle cx="204" cy="240" r="28" fill="#F59E0B" stroke="#FBBF24" stroke-width="8"/>
  <circle cx="256" cy="188" r="22" fill="#2563EB" stroke="#93C5FD" stroke-width="6"/>
  <circle cx="308" cy="292" r="22" fill="#10B981" stroke="#A7F3D0" stroke-width="6"/>
</svg>
